<?xml version="1.0" standalone="no"?>
<!DOCTYPE svg PUBLIC "-//W3C//DTD SVG 20010904//EN"
 "http://www.w3.org/TR/2001/REC-SVG-20010904/DTD/svg10.dtd">
<svg version="1.0" xmlns="http://www.w3.org/2000/svg"
 width="400.000000pt" height="400.000000pt" viewBox="0 0 400.000000 200.000000"
 preserveAspectRatio="xMidYMid meet">
<metadata>
Created by potrace 1.15, written by Peter Selinger 2001-2017
</metadata>
<g transform="translate(0.000000,200.000000) scale(0.100000,-0.100000)"
fill="#62B132" stroke="none">
<path d="M445 2556 c-42 -13 -347 -212 -409 -267 -36 -31 -45 -52 -26 -64 5
-3 96 52 202 123 106 71 208 137 227 147 81 41 192 11 456 -124 72 -37 201
-91 290 -121 l160 -55 -665 -3 c-423 -1 -668 -6 -674 -12 -33 -33 5 -35 797
-40 l782 -5 -90 -54 c-208 -125 -433 -294 -479 -360 -56 -81 -68 -149 -37
-216 25 -54 67 -91 193 -169 180 -113 193 -145 99 -253 -114 -133 -167 -173
-471 -360 -63 -39 -162 -96 -220 -128 -58 -32 -125 -72 -150 -90 -25 -18 -112
-74 -195 -125 -194 -119 -235 -152 -235 -191 0 -16 5 -29 10 -29 6 0 35 20 66
45 71 58 195 141 369 247 663 403 694 424 808 539 60 60 115 125 123 145 35
85 -6 140 -190 257 -71 45 -138 94 -149 108 -30 42 -34 110 -8 153 44 71 218
206 462 359 193 122 215 128 451 125 l191 -3 -51 -59 c-29 -33 -64 -84 -80
-115 -23 -48 -27 -69 -27 -142 0 -78 3 -91 37 -160 45 -90 150 -230 408 -544
257 -312 385 -484 443 -592 57 -110 120 -295 144 -425 17 -96 18 -98 46 -98
23 0 27 3 23 23 -3 12 -13 60 -22 107 -58 305 -197 559 -475 870 -128 144
-152 174 -339 420 -90 118 -175 239 -189 270 -53 114 -24 248 80 364 82 92 6
86 997 86 l872 0 0 25 0 25 -557 0 -556 0 114 74 c63 40 182 109 264 152 202
106 206 106 440 0 94 -42 192 -90 218 -106 59 -37 77 -38 77 -5 0 30 -31 49
-250 149 -187 85 -242 101 -306 92 -47 -6 -248 -102 -370 -176 -38 -23 -83
-44 -100 -47 -37 -6 -97 22 -210 100 -126 86 -158 100 -225 95 -46 -3 -72 -13
-136 -52 -44 -26 -114 -77 -157 -113 -89 -76 -74 -78 -217 17 -201 132 -319
122 -578 -48 -51 -34 -101 -62 -111 -62 -43 0 -299 99 -443 171 -174 87 -314
139 -373 138 -22 0 -57 -6 -79 -13z m2279 -170 c72 -47 143 -89 159 -95 15 -6
27 -14 27 -19 0 -5 -24 -24 -52 -43 l-53 -34 -224 -3 c-210 -3 -227 -2 -277
18 -29 12 -60 30 -68 39 -15 16 -11 21 47 67 131 106 216 154 271 154 32 0 62
-15 170 -84z m-814 -6 c24 -12 67 -40 95 -60 27 -21 89 -59 138 -84 l87 -46
-381 0 c-335 0 -385 2 -416 17 l-35 16 23 18 c55 41 213 132 261 150 70 26
165 21 228 -11z"/>
</g>
</svg>
