<?xml version="1.0" encoding="iso-8859-1"?>
<!-- Uploaded to: SVG Repo, www.svgrepo.com, Generator: SVG Repo Mixer Tools -->
<!DOCTYPE svg PUBLIC "-//W3C//DTD SVG 1.1//EN" "http://www.w3.org/Graphics/SVG/1.1/DTD/svg11.dtd">
<svg fill="#000000" height="800px" width="800px" version="1.1" id="Capa_1" xmlns="http://www.w3.org/2000/svg" xmlns:xlink="http://www.w3.org/1999/xlink" 
	 viewBox="0 0 408.732 408.732" xml:space="preserve">
<g>
	<path d="M394.068,169.756l-39.537-57.51l-10.013-45.892c-1.283-5.876-6.575-10.142-12.583-10.142c-0.75,0-1.507,0.066-2.249,0.197
		c-2.613,0.467-5.144-1.306-5.646-3.874l-7.324-37.438c-0.349-1.78-1.852-3.103-3.661-3.224c-1.786-0.114-3.474,0.993-4.055,2.712
		l-18.053,53.462c-2.046,6.06-7.727,10.13-14.137,10.13c-2.961,0-5.839-0.893-8.324-2.58l-22.013-14.952
		c-4.422-3.004-6.005-8.706-3.765-13.56c2.192-4.75,2.31-10.248,0.321-15.087c-1.987-4.839-5.937-8.667-10.835-10.504l-16.917-6.344
		c-2.128-0.798-4.357-1.203-6.628-1.203c-4.395,0-8.677,1.546-12.059,4.352l-30.396,25.223c-2.774,2.302-6.289,3.57-9.896,3.57
		c-2.476,0-4.947-0.604-7.146-1.748c-3.204-1.666-6.803-2.547-10.406-2.547c-6.886,0-13.306,3.077-17.613,8.443l-46.869,58.381
		l-51.757,23.696c-19.014,8.704-27.557,30.623-19.45,49.899l27.788,66.072c2.174,5.171,1.749,11.128-1.137,15.935l-1.221,2.037
		c-2.64,4.4-3.23,9.716-1.622,14.587c1.609,4.871,5.25,8.789,9.99,10.751c4.835,2.001,9.94,3.016,15.173,3.016
		c5.771-0.001,11.354-1.224,16.596-3.636l41.419-19.066c4.798-2.209,9.766-4.184,14.765-5.87l47.359-15.977
		c3.289-1.109,6.706-1.672,10.156-1.672c11.38,0,21.957,6.139,27.604,16.02l8.335,14.588c2.029,3.551,5.833,5.756,9.928,5.756
		c3.195,0,6.266-1.356,8.425-3.721l5.601-6.135c0.756-0.828,1.78-1.283,2.884-1.283c1.298,0,2.945,0.649,3.675,2.475l9.456,23.64
		c6.577,16.441,22.264,27.35,39.965,27.792l23.673,0.592c0.467,0.012,0.932,0.018,1.397,0.018
		c19.253-0.001,37.456-10.205,47.506-26.631l25.715-42.035c7.365-12.039,11.574-25.854,12.174-39.952
		C409.422,202.58,404.241,184.552,394.068,169.756z M276.809,86.178c0.001,0,0.001,0,0.002,0c9.845,0,18.571-6.258,21.716-15.571
		l13.23-39.183l4.431,22.647c1.182,6.034,6.497,10.414,12.64,10.414c0.749,0,1.506-0.066,2.249-0.197
		c2.55-0.46,5.077,1.262,5.625,3.771l10.18,46.658c0.11,0.507,0.318,0.986,0.612,1.413l39.982,58.158
		c9.196,13.375,13.88,29.672,13.19,45.889c-0.07,1.644-0.196,3.283-0.374,4.915l-111.483-7.176l1.971-29.788
		c0.072-1.088-0.304-2.158-1.039-2.963c-0.736-0.805-1.769-1.274-2.859-1.3l-26.07-0.608l3.357-100.933
		C267.944,84.842,272.309,86.178,276.809,86.178z M171.304,49.679l30.396-25.223c2.953-2.453,7.164-3.166,10.768-1.815l16.918,6.344
		c2.864,1.074,5.082,3.225,6.244,6.054c1.162,2.829,1.097,5.917-0.186,8.693c-3.888,8.423-1.14,18.318,6.534,23.53l14.361,9.755
		l-3.527,106.054l-84.631-1.973l-5.386-126.942C165.89,53.266,168.798,51.758,171.304,49.679z M122.25,259.464
		c-5.267,1.776-10.499,3.857-15.554,6.183l-41.418,19.066c-4.186,1.926-8.644,2.902-13.251,2.903c-4.178,0-8.253-0.811-12.114-2.408
		c-2.587-1.07-4.574-3.209-5.452-5.867c-0.879-2.659-0.556-5.562,0.886-7.963l1.221-2.036c4.192-6.985,4.81-15.641,1.651-23.152
		l-27.788-66.073c-6.422-15.269,0.346-32.63,15.405-39.525l52.618-24.09c0.566-0.259,1.064-0.646,1.454-1.133l47.462-59.12
		c2.781-3.465,6.928-5.451,11.375-5.451c2.324,0,4.646,0.568,6.716,1.645c2.898,1.507,6.109,2.395,9.366,2.602l8.09,190.701
		L122.25,259.464z M265.657,297.764l-9.456-23.64c-1.823-4.559-6.181-7.504-11.103-7.504c-3.379,0-6.501,1.381-8.792,3.889
		l-5.601,6.135c-0.886,0.971-1.957,1.115-2.517,1.115c-1.25,0-2.364-0.645-2.981-1.725l-8.336-14.588
		c-7.067-12.368-20.306-20.051-34.549-20.051c-3.902,0-7.767,0.579-11.51,1.713l-2.291-53.999l114.001,2.657l-7.879,119.096
		C270.793,307.288,267.691,302.851,265.657,297.764z M389.66,256.296l-25.715,42.034c-8.607,14.067-24.194,22.806-40.682,22.807
		c-0.398,0-0.798-0.005-1.198-0.016l-23.673-0.592c-5.747-0.143-11.224-1.652-16.091-4.238l5.98-90.391l110.708,7.126
		C397.2,241.223,394.056,249.11,389.66,256.296z"/>
	<path d="M330.031,358.122l-16.469-1.372c-3.943-0.318-7.595,1.333-9.95,4.418c-2.16,2.828-2.862,6.422-1.925,9.858l6.243,22.893
		c0.386,1.412,1.511,2.501,2.935,2.839c0.307,0.073,0.617,0.108,0.925,0.108c1.119,0,2.205-0.471,2.974-1.324l20.896-23.219
		c2.183-2.425,2.791-5.814,1.589-8.846C336.047,360.444,333.281,358.392,330.031,358.122z M329.713,366.97l-15.993,17.772
		l-4.314-15.821c-0.378-1.384,0.19-2.409,0.563-2.896c0.638-0.835,1.597-1.315,2.632-1.315c0.098,0,0.197,0.004,0.297,0.013
		l16.469,1.372c0.098,0.008,0.325,0.027,0.445,0.33C329.932,366.728,329.78,366.897,329.713,366.97z"/>
</g>
</svg>