<svg fill="none" height="256" stroke-linecap="round" stroke-linejoin="round" stroke-width="31" viewBox="-128 -128 256 256" width="256" xmlns="http://www.w3.org/2000/svg"><circle cx="0" cy="0" fill="#FFFFFF" r="128" stroke="none"></circle><g stroke-linecap="butt"><path d="M -128,0 Q -112,0 -112,20 -100,100 -20,112 0,112 0,128" stroke="#62B132"></path><path d="M 128,0 Q 112,0 112,-20 100,-100 20,-112  0,-112 0,-128" stroke="#5881D8"></path></g><g id="net"><g stroke-width="4" stroke="#E0E0E0"><g><line x1="-64" x2="0" y1="-32" y2="-64"></line><line x1="-64" x2="0" y1="-32" y2="-32"></line><line x1="-64" x2="0" y1="-32" y2="0"></line><line x1="-64" x2="0" y1="-32" y2="32"></line><line x1="-64" x2="0" y1="-32" y2="64"></line><line x1="-64" x2="0" y1="0" y2="-64"></line><line x1="-64" x2="0" y1="0" y2="-32"></line><line x1="-64" x2="0" y1="0" y2="0"></line><line x1="-64" x2="0" y1="0" y2="32"></line><line x1="-64" x2="0" y1="0" y2="64"></line><line x1="-64" x2="0" y1="32" y2="-64"></line><line x1="-64" x2="0" y1="32" y2="-32"></line><line x1="-64" x2="0" y1="32" y2="0"></line><line x1="-64" x2="0" y1="32" y2="32"></line><line x1="-64" x2="0" y1="32" y2="64"></line></g><g><line x1="0" x2="64" y1="-64" y2="-16"></line><line x1="0" x2="64" y1="-64" y2="16"></line><line x1="0" x2="64" y1="-32" y2="-16"></line><line x1="0" x2="64" y1="-32" y2="16"></line><line x1="0" x2="64" y1="0" y2="-16"></line><line x1="0" x2="64" y1="0" y2="16"></line><line x1="0" x2="64" y1="32" y2="-16"></line><line x1="0" x2="64" y1="32" y2="16"></line><line x1="0" x2="64" y1="64" y2="-16"></line><line x1="0" x2="64" y1="64" y2="16"></line></g></g><g fill="#FFCD52"><circle cx="-64" cy="-32" r="14"></circle><circle cx="-64" cy="0" r="14"></circle><circle cx="-64" cy="32" r="14"></circle></g><g fill="#A86F40"><circle cx="0" cy="-64" r="14"></circle><circle cx="0" cy="-32" r="14"></circle><circle cx="0" cy="0" r="14"></circle><circle cx="0" cy="32" r="14"></circle><circle cx="0" cy="64" r="14"></circle></g><g fill="#F26767"><circle cx="64" cy="-16" r="14"></circle><circle cx="64" cy="16" r="14"></circle></g></g></svg>