<svg fill="none" height="256" stroke-linecap="round" stroke-linejoin="round" stroke-width="31" viewBox="-128 -128 256 256" width="256" xmlns="http://www.w3.org/2000/svg"><circle cx="0" cy="0" fill="#FFFFFF" r="128" stroke="none"></circle><g stroke-linecap="butt"><path d="M -128,0 Q -112,0 -112,20 -100,100 -20,112 0,112 0,128" stroke="#62B132"></path><path d="M 128,0 Q 112,0 112,-20 100,-100 20,-112  0,-112 0,-128" stroke="#5881D8"></path></g><g fill="#2F4179" id="cooking pot" stroke="#2F4179"><g id="lid"><line stroke-width="10" x1="-10" x2="10" y1="-65" y2="-65"></line><line stroke-width="10" x1="0" x2="0" y1="-65" y2="-55"></line><path d="M -68 -38 L 68 -38 25 -50 -25 -50 z" stroke-width="10"></path></g><g id="pot"><rect height="1" stroke-width="10" width="10" x="-80" y="-10"></rect><rect height="1" stroke-width="10" width="10" x="70" y="-10"></rect><path d="M -64 -20 L 64 -20 55 40 -55 40 z" stroke-width="20"></path></g></g></svg>