<svg viewBox="-135 -130 810 720" xmlns="http://www.w3.org/2000/svg"><g fill="none" stroke-linecap="round" stroke-linejoin="round" stroke-width="31" transform="translate(135,0)"><circle cx="0" cy="0" fill="#FFFFFF" r="128" stroke="none"></circle><g stroke-linecap="butt"><path d="M -128,0 Q -112,0 -112,20 -100,100 -20,112 0,112 0,128" stroke="#62B132"></path><path d="M 128,0 Q 112,0 112,-20 100,-100 20,-112  0,-112 0,-128" stroke="#5881D8"></path></g><circle cx="0" cy="0" fill="#808080" id="gray ball of clay" r="64.0"></circle></g><g fill="none" stroke-linecap="round" stroke-linejoin="round" stroke-width="31" transform="translate(405,0)"><circle cx="0" cy="0" fill="#FFFFFF" r="128" stroke="none"></circle><g stroke-linecap="butt"><path d="M -128,0 Q -112,0 -112,20 -100,100 -20,112 0,112 0,128" stroke="#62B132"></path><path d="M 128,0 Q 112,0 112,-20 100,-100 20,-112  0,-112 0,-128" stroke="#5881D8"></path></g><g id="heart" transform="translate(-120,-120) scale(10)"><path d="M 12.0 7.2 C 10.5 5.6 8.1 5.2 6.3 6.7 C 4.5 8.1 4.2 10.6 5.7 12.4 L 12.0 18.3 L 18.3 12.4 C 19.7 10.6 19.5 8.1 17.7 6.7 C 15.8 5.2 13.4 5.6 12.0 7.2 Z" fill="#F26767"></path></g></g><g fill="none" stroke-linecap="round" stroke-linejoin="round" stroke-width="31" transform="translate(0,230)"><circle cx="0" cy="0" fill="#FFFFFF" r="128" stroke="none"></circle><g stroke-linecap="butt"><path d="M -128,0 Q -112,0 -112,20 -100,100 -20,112 0,112 0,128" stroke="#62B132"></path><path d="M 128,0 Q 112,0 112,-20 100,-100 20,-112  0,-112 0,-128" stroke="#5881D8"></path></g><g fill="#2F4179" id="cooking pot" stroke="#2F4179"><g id="lid"><line stroke-width="10" x1="-10" x2="10" y1="-65" y2="-65"></line><line stroke-width="10" x1="0" x2="0" y1="-65" y2="-55"></line><path d="M -68 -38 L 68 -38 25 -50 -25 -50 z" stroke-width="10"></path></g><g id="pot"><rect height="1" stroke-width="10" width="10" x="-80" y="-10"></rect><rect height="1" stroke-width="10" width="10" x="70" y="-10"></rect><path d="M -64 -20 L 64 -20 55 40 -55 40 z" stroke-width="20"></path></g></g></g><g fill="none" stroke-linecap="round" stroke-linejoin="round" stroke-width="31" transform="translate(270,230)"><circle cx="0" cy="0" fill="#FFFFFF" r="128" stroke="none"></circle><g stroke-linecap="butt"><path d="M -128,0 Q -112,0 -112,20 -100,100 -20,112 0,112 0,128" stroke="#62B132"></path><path d="M 128,0 Q 112,0 112,-20 100,-100 20,-112  0,-112 0,-128" stroke="#5881D8"></path></g><g id="net"><g stroke-width="4" stroke="#E0E0E0"><g><line x1="-64" x2="0" y1="-32" y2="-64"></line><line x1="-64" x2="0" y1="-32" y2="-32"></line><line x1="-64" x2="0" y1="-32" y2="0"></line><line x1="-64" x2="0" y1="-32" y2="32"></line><line x1="-64" x2="0" y1="-32" y2="64"></line><line x1="-64" x2="0" y1="0" y2="-64"></line><line x1="-64" x2="0" y1="0" y2="-32"></line><line x1="-64" x2="0" y1="0" y2="0"></line><line x1="-64" x2="0" y1="0" y2="32"></line><line x1="-64" x2="0" y1="0" y2="64"></line><line x1="-64" x2="0" y1="32" y2="-64"></line><line x1="-64" x2="0" y1="32" y2="-32"></line><line x1="-64" x2="0" y1="32" y2="0"></line><line x1="-64" x2="0" y1="32" y2="32"></line><line x1="-64" x2="0" y1="32" y2="64"></line></g><g><line x1="0" x2="64" y1="-64" y2="-16"></line><line x1="0" x2="64" y1="-64" y2="16"></line><line x1="0" x2="64" y1="-32" y2="-16"></line><line x1="0" x2="64" y1="-32" y2="16"></line><line x1="0" x2="64" y1="0" y2="-16"></line><line x1="0" x2="64" y1="0" y2="16"></line><line x1="0" x2="64" y1="32" y2="-16"></line><line x1="0" x2="64" y1="32" y2="16"></line><line x1="0" x2="64" y1="64" y2="-16"></line><line x1="0" x2="64" y1="64" y2="16"></line></g></g><g fill="#FFCD52"><circle cx="-64" cy="-32" r="14"></circle><circle cx="-64" cy="0" r="14"></circle><circle cx="-64" cy="32" r="14"></circle></g><g fill="#A86F40"><circle cx="0" cy="-64" r="14"></circle><circle cx="0" cy="-32" r="14"></circle><circle cx="0" cy="0" r="14"></circle><circle cx="0" cy="32" r="14"></circle><circle cx="0" cy="64" r="14"></circle></g><g fill="#F26767"><circle cx="64" cy="-16" r="14"></circle><circle cx="64" cy="16" r="14"></circle></g></g></g><g fill="none" stroke-linecap="round" stroke-linejoin="round" stroke-width="31" transform="translate(540,230)"><circle cx="0" cy="0" fill="#FFFFFF" r="128" stroke="none"></circle><g stroke-linecap="butt"><path d="M -128,0 Q -112,0 -112,20 -100,100 -20,112 0,112 0,128" stroke="#62B132"></path><path d="M 128,0 Q 112,0 112,-20 100,-100 20,-112  0,-112 0,-128" stroke="#5881D8"></path></g><g id="tilde" stroke-linecap="square" stroke-width="20" stroke="#FFCD52"><path d="M -55 55 L -55 -55 -18 -55 -18 55 18 55 18 -55 55 -55 55 55" stroke-width="30" stroke="#A86F40"></path><path d="M -55 55 L -55 -55 -18 -55 -18 55 18 55 18 -55 55 -55 55 55"></path><path d="M -67 65 L -43 65" stroke-linecap="round" stroke-width="10" stroke="#A86F40"></path><path d="M 67 65 L 43 65" stroke-linecap="round" stroke-width="10" stroke="#A86F40"></path><path d="M -30 -20 L -6 -20" stroke-linecap="round" stroke-width="10" stroke="#A86F40"></path><path d="M 30 20 L 6 20" stroke-linecap="round" stroke-width="10" stroke="#A86F40"></path></g></g><g fill="none" stroke-linecap="round" stroke-linejoin="round" stroke-width="31" transform="translate(135,460)"><circle cx="0" cy="0" fill="#FFFFFF" r="128" stroke="none"></circle><g stroke-linecap="butt"><path d="M -128,0 Q -112,0 -112,20 -100,100 -20,112 0,112 0,128" stroke="#62B132"></path><path d="M 128,0 Q 112,0 112,-20 100,-100 20,-112  0,-112 0,-128" stroke="#5881D8"></path></g><g fill="#8FB5FE" id="robot head" stroke="#8FB5FE"><path d="M -64 -20 L 64 -20 55 40 -55 40 z" stroke-width="20"></path><line stroke-width="10" x1="0" x2="0" y1="0" y2="-64"></line><circle cx="0" cy="-64" r="10" stroke="none"></circle><g fill="#2F4179" stroke-width="10" stroke="#2F4179"><circle cx="-32" cy="0" r="8"></circle><circle cx="32" cy="0" r="8"></circle><line x1="-16" x2="16" y1="30" y2="30"></line></g></g></g><g fill="none" stroke-linecap="round" stroke-linejoin="round" stroke-width="31" transform="translate(405,460)"><circle cx="0" cy="0" fill="#FFFFFF" r="128" stroke="none"></circle><g stroke-linecap="butt"><path d="M -128,0 Q -112,0 -112,20 -100,100 -20,112 0,112 0,128" stroke="#62B132"></path><path d="M 128,0 Q 112,0 112,-20 100,-100 20,-112  0,-112 0,-128" stroke="#5881D8"></path></g><g id="grid of data" stroke-width="8" stroke="#2F4179"><rect fill="#E0E0E0" height="100.0" width="150.0" x="-75.0" y="-50.0"></rect><line x1="-75.0" x2="75.0" y1="-50.0" y2="-50.0"></line><line x1="-75.0" x2="75.0" y1="-25.0" y2="-25.0"></line><line x1="-75.0" x2="75.0" y1="0.0" y2="0.0"></line><line x1="-75.0" x2="75.0" y1="25.0" y2="25.0"></line><line x1="-75.0" x2="75.0" y1="50.0" y2="50.0"></line><line x1="-75.0" x2="-75.0" y1="-50.0" y2="50.0"></line><line x1="-25.0" x2="-25.0" y1="-50.0" y2="50.0"></line><line x1="25.0" x2="25.0" y1="-50.0" y2="50.0"></line><line x1="75.0" x2="75.0" y1="-50.0" y2="50.0"></line></g></g></svg>