<svg fill="none" height="256" stroke-linecap="round" stroke-linejoin="round" stroke-width="31" viewBox="-128 -128 256 256" width="256" xmlns="http://www.w3.org/2000/svg"><circle cx="0" cy="0" fill="#FFFFFF" r="128" stroke="none"></circle><g stroke-linecap="butt"><path d="M -128,0 Q -112,0 -112,20 -100,100 -20,112 0,112 0,128" stroke="#62B132"></path><path d="M 128,0 Q 112,0 112,-20 100,-100 20,-112  0,-112 0,-128" stroke="#5881D8"></path></g><g id="grid of data" stroke-width="8" stroke="#2F4179"><rect fill="#E0E0E0" height="100.0" width="150.0" x="-75.0" y="-50.0"></rect><line x1="-75.0" x2="75.0" y1="-50.0" y2="-50.0"></line><line x1="-75.0" x2="75.0" y1="-25.0" y2="-25.0"></line><line x1="-75.0" x2="75.0" y1="0.0" y2="0.0"></line><line x1="-75.0" x2="75.0" y1="25.0" y2="25.0"></line><line x1="-75.0" x2="75.0" y1="50.0" y2="50.0"></line><line x1="-75.0" x2="-75.0" y1="-50.0" y2="50.0"></line><line x1="-25.0" x2="-25.0" y1="-50.0" y2="50.0"></line><line x1="25.0" x2="25.0" y1="-50.0" y2="50.0"></line><line x1="75.0" x2="75.0" y1="-50.0" y2="50.0"></line></g></svg>